<svg xmlns="http://www.w3.org/2000/svg" xmlns:xlink="http://www.w3.org/1999/xlink" width="500" zoomAndPan="magnify" viewBox="0 0 375 374.999991" height="500" preserveAspectRatio="xMidYMid meet" version="1.0"><defs><clipPath id="id1"><path d="M 44.378906 19 L 337.628906 19 L 337.628906 356.363281 L 44.378906 356.363281 Z M 44.378906 19 " clip-rule="nonzero"/></clipPath></defs><path fill="#283466" d="M 327.152344 105.128906 L 194.667969 28.65625 L 191.082031 26.585938 L 187.496094 28.65625 L 64.960938 99.378906 L 55.003906 105.128906 L 51.417969 107.195312 L 51.417969 171.753906 L 63.300781 161.402344 C 69.675781 155.855469 77.835938 152.796875 86.269531 152.796875 C 105.25 152.796875 120.960938 168.226562 121.285156 187.191406 L 121.285156 187.28125 L 121.292969 187.371094 C 121.292969 206.59375 136.925781 222.226562 156.144531 222.226562 C 175.363281 222.226562 191 206.59375 191 187.378906 C 191 180.355469 193.082031 173.574219 197.019531 167.777344 C 203.566406 158.125 214.410156 152.367188 226.019531 152.367188 C 245.328125 152.367188 261.039062 168.074219 261.039062 187.378906 C 261.039062 206.59375 276.671875 222.226562 295.890625 222.226562 C 315.109375 222.226562 330.746094 206.59375 330.746094 187.378906 L 330.746094 107.203125 Z M 327.152344 105.128906 " fill-opacity="1" fill-rule="nonzero"/><path fill="#1eb8d1" d="M 86.269531 157.722656 C 102.867188 157.722656 116.371094 171.222656 116.371094 187.816406 C 116.371094 187.890625 116.371094 187.960938 116.378906 188.078125 C 116.558594 198.53125 120.777344 208.351562 128.265625 215.714844 C 135.761719 223.082031 145.660156 227.144531 156.144531 227.144531 C 165.730469 227.144531 174.996094 223.671875 182.238281 217.367188 L 186.242188 213.878906 L 186.242188 340.765625 L 56.171875 265.683594 L 56.171875 187.816406 C 56.171875 171.222656 69.675781 157.722656 86.269531 157.722656 Z M 86.269531 157.722656 " fill-opacity="1" fill-rule="nonzero"/><path fill="#3c4c9b" d="M 226.011719 157.292969 C 242.609375 157.292969 256.109375 170.792969 256.109375 187.386719 C 256.109375 209.3125 273.953125 227.152344 295.886719 227.152344 C 305.46875 227.152344 314.738281 223.679688 321.976562 217.375 L 325.984375 213.886719 L 325.984375 265.691406 L 195.917969 340.765625 L 195.917969 187.386719 C 195.917969 170.792969 209.414062 157.292969 226.011719 157.292969 Z M 226.011719 157.292969 " fill-opacity="1" fill-rule="nonzero"/><g clip-path="url(#id1)"><path fill="#0c0d1b" d="M 187.449219 20.199219 L 47.703125 100.867188 C 45.914062 101.898438 44.675781 103.621094 44.246094 105.59375 C 44.136719 106.097656 44.074219 106.621094 44.074219 107.148438 L 44.074219 268.480469 C 44.074219 271.074219 45.457031 273.46875 47.703125 274.761719 L 187.449219 355.429688 C 187.476562 355.441406 187.503906 355.457031 187.539062 355.476562 C 187.601562 355.511719 187.667969 355.546875 187.730469 355.582031 C 187.855469 355.652344 187.988281 355.714844 188.121094 355.769531 C 188.183594 355.796875 188.238281 355.824219 188.300781 355.851562 C 188.472656 355.925781 188.652344 355.988281 188.832031 356.046875 C 188.902344 356.066406 188.972656 356.085938 189.046875 356.109375 C 189.199219 356.148438 189.34375 356.191406 189.496094 356.226562 C 189.550781 356.238281 189.601562 356.253906 189.65625 356.257812 C 189.855469 356.300781 190.058594 356.328125 190.257812 356.351562 C 190.3125 356.355469 190.367188 356.363281 190.425781 356.363281 C 190.640625 356.382812 190.859375 356.398438 191.074219 356.398438 C 191.289062 356.398438 191.511719 356.382812 191.726562 356.363281 C 191.78125 356.355469 191.835938 356.355469 191.890625 356.351562 C 192.09375 356.328125 192.292969 356.292969 192.492188 356.257812 C 192.550781 356.246094 192.597656 356.230469 192.652344 356.226562 C 192.804688 356.191406 192.949219 356.15625 193.101562 356.109375 C 193.171875 356.085938 193.246094 356.066406 193.316406 356.046875 C 193.496094 355.988281 193.675781 355.921875 193.851562 355.851562 C 193.914062 355.824219 193.96875 355.796875 194.03125 355.769531 C 194.160156 355.714844 194.292969 355.652344 194.417969 355.582031 C 194.488281 355.546875 194.550781 355.511719 194.609375 355.476562 C 194.640625 355.464844 194.671875 355.449219 194.703125 355.429688 L 334.453125 274.761719 C 336.699219 273.46875 338.082031 271.074219 338.082031 268.480469 L 338.082031 107.15625 C 338.082031 104.5625 336.699219 102.167969 334.453125 100.871094 L 194.707031 20.199219 C 192.457031 18.90625 189.699219 18.90625 187.449219 20.199219 Z M 58.585938 264.292969 L 58.585938 187.816406 C 58.585938 172.558594 71.003906 160.144531 86.265625 160.144531 C 101.523438 160.144531 113.941406 172.558594 113.941406 187.816406 C 113.941406 187.917969 113.941406 188.023438 113.949219 188.121094 C 114.34375 211.042969 133.117188 229.566406 156.136719 229.566406 C 166.71875 229.566406 176.402344 225.648438 183.816406 219.195312 L 183.816406 336.574219 Z M 323.570312 219.195312 L 323.570312 264.292969 L 198.335938 336.574219 L 198.335938 187.386719 C 198.335938 172.128906 210.75 159.714844 226.011719 159.714844 C 241.273438 159.714844 253.6875 172.128906 253.6875 187.386719 C 253.6875 210.648438 272.617188 229.574219 295.886719 229.574219 C 306.46875 229.566406 316.148438 225.648438 323.570312 219.195312 Z M 323.570312 111.34375 L 323.570312 187.386719 C 323.570312 202.644531 311.152344 215.054688 295.890625 215.054688 C 280.632812 215.054688 268.214844 202.644531 268.214844 187.386719 C 268.214844 164.121094 249.285156 145.199219 226.019531 145.199219 C 211.503906 145.199219 198.679688 152.566406 191.082031 163.757812 C 186.5 170.503906 183.820312 178.640625 183.820312 187.386719 C 183.820312 202.644531 171.40625 215.054688 156.144531 215.054688 C 140.882812 215.054688 128.46875 202.644531 128.46875 187.386719 C 128.46875 187.28125 128.46875 187.179688 128.460938 187.082031 C 128.066406 164.15625 109.289062 145.632812 86.269531 145.632812 C 75.6875 145.632812 66.007812 149.550781 58.59375 156.007812 L 58.59375 111.34375 L 68.554688 105.59375 L 191.074219 34.863281 Z M 323.570312 111.34375 " fill-opacity="1" fill-rule="nonzero"/></g></svg>